<mxfile host="65bd71144e">
    <diagram id="MUck5Sgnh3A2OByATj3p" name="Page-1">
        <mxGraphModel dx="781" dy="1045" grid="1" gridSize="10" guides="1" tooltips="1" connect="1" arrows="1" fold="1" page="1" pageScale="1" pageWidth="850" pageHeight="1100" math="0" shadow="0">
            <root>
                <mxCell id="0"/>
                <mxCell id="1" parent="0"/>
                <mxCell id="2" value="20 Bytes" style="rounded=0;whiteSpace=wrap;html=1;fillColor=#e51400;fontColor=#ffffff;strokeColor=#000000;" parent="1" vertex="1">
                    <mxGeometry y="80" width="200" height="40" as="geometry"/>
                </mxCell>
                <mxCell id="3" value="8 Bytes" style="rounded=0;whiteSpace=wrap;html=1;fillColor=#f0a30a;fontColor=#FFFFFF;strokeColor=#000000;" parent="1" vertex="1">
                    <mxGeometry x="200" y="80" width="80" height="40" as="geometry"/>
                </mxCell>
                <mxCell id="4" value="8 Bytes" style="rounded=0;whiteSpace=wrap;html=1;fillColor=#f0a30a;fontColor=#FFFFFF;strokeColor=#000000;" parent="1" vertex="1">
                    <mxGeometry x="280" y="80" width="80" height="40" as="geometry"/>
                </mxCell>
                <mxCell id="5" value="8 bytes" style="rounded=0;whiteSpace=wrap;html=1;fillColor=#f0a30a;fontColor=#FFFFFF;strokeColor=#000000;" parent="1" vertex="1">
                    <mxGeometry x="400" y="80" width="80" height="40" as="geometry"/>
                </mxCell>
                <mxCell id="6" value="..." style="text;html=1;strokeColor=none;fillColor=none;align=center;verticalAlign=middle;whiteSpace=wrap;rounded=0;fontSize=30;fontStyle=1;fontColor=#000000;" parent="1" vertex="1">
                    <mxGeometry x="350" y="80" width="60" height="30" as="geometry"/>
                </mxCell>
                <mxCell id="23" style="edgeStyle=none;html=1;exitX=0.5;exitY=0;exitDx=0;exitDy=0;entryX=0.5;entryY=1;entryDx=0;entryDy=0;fontColor=#000000;" parent="1" source="7" target="2" edge="1">
                    <mxGeometry relative="1" as="geometry"/>
                </mxCell>
                <mxCell id="7" value="IPv4 Header &lt;br&gt;(no Options)" style="text;html=1;strokeColor=none;fillColor=none;align=center;verticalAlign=middle;whiteSpace=wrap;rounded=0;fontSize=16;fontStyle=1;fontColor=#000000;" parent="1" vertex="1">
                    <mxGeometry y="170" width="200" height="40" as="geometry"/>
                </mxCell>
                <mxCell id="8" value="0" style="text;html=1;strokeColor=none;fillColor=none;align=left;verticalAlign=middle;whiteSpace=wrap;rounded=0;fontColor=#000000;" parent="1" vertex="1">
                    <mxGeometry y="120" width="60" height="30" as="geometry"/>
                </mxCell>
                <mxCell id="9" value="19" style="text;html=1;strokeColor=none;fillColor=none;align=right;verticalAlign=middle;whiteSpace=wrap;rounded=0;fontColor=#000000;" parent="1" vertex="1">
                    <mxGeometry x="140" y="60" width="60" height="20" as="geometry"/>
                </mxCell>
                <mxCell id="10" value="20" style="text;html=1;strokeColor=none;fillColor=none;align=left;verticalAlign=middle;whiteSpace=wrap;rounded=0;fontColor=#000000;" parent="1" vertex="1">
                    <mxGeometry x="200" y="120" width="20" height="30" as="geometry"/>
                </mxCell>
                <mxCell id="11" value="27" style="text;html=1;strokeColor=none;fillColor=none;align=right;verticalAlign=middle;whiteSpace=wrap;rounded=0;fontColor=#000000;" parent="1" vertex="1">
                    <mxGeometry x="260" y="60" width="20" height="20" as="geometry"/>
                </mxCell>
                <mxCell id="12" value="28" style="text;html=1;strokeColor=none;fillColor=none;align=left;verticalAlign=middle;whiteSpace=wrap;rounded=0;fontColor=#000000;" parent="1" vertex="1">
                    <mxGeometry x="280" y="120" width="20" height="30" as="geometry"/>
                </mxCell>
                <mxCell id="13" value="35" style="text;html=1;strokeColor=none;fillColor=none;align=left;verticalAlign=middle;whiteSpace=wrap;rounded=0;fontColor=#000000;" parent="1" vertex="1">
                    <mxGeometry x="340" y="60" width="20" height="20" as="geometry"/>
                </mxCell>
                <mxCell id="14" value="65524" style="text;html=1;strokeColor=none;fillColor=none;align=left;verticalAlign=middle;whiteSpace=wrap;rounded=0;fontColor=#000000;" parent="1" vertex="1">
                    <mxGeometry x="400" y="120" width="20" height="30" as="geometry"/>
                </mxCell>
                <mxCell id="15" value="3 Bytes" style="rounded=0;whiteSpace=wrap;html=1;fillColor=#f0a30a;fontColor=#FFFFFF;strokeColor=#000000;" parent="1" vertex="1">
                    <mxGeometry x="480" y="80" width="40" height="40" as="geometry"/>
                </mxCell>
                <mxCell id="16" value="65532" style="text;html=1;strokeColor=none;fillColor=none;align=left;verticalAlign=middle;whiteSpace=wrap;rounded=0;fontColor=#000000;" parent="1" vertex="1">
                    <mxGeometry x="480" y="120" width="20" height="30" as="geometry"/>
                </mxCell>
                <mxCell id="17" value="65531" style="text;html=1;strokeColor=none;fillColor=none;align=right;verticalAlign=middle;whiteSpace=wrap;rounded=0;fontColor=#000000;" parent="1" vertex="1">
                    <mxGeometry x="460" y="60" width="20" height="20" as="geometry"/>
                </mxCell>
                <mxCell id="18" value="65534" style="text;html=1;strokeColor=none;fillColor=none;align=right;verticalAlign=middle;whiteSpace=wrap;rounded=0;fontColor=#000000;" parent="1" vertex="1">
                    <mxGeometry x="500" y="60" width="20" height="20" as="geometry"/>
                </mxCell>
                <mxCell id="20" value="8189 Fragments" style="text;html=1;strokeColor=none;fillColor=none;align=center;verticalAlign=middle;whiteSpace=wrap;rounded=0;fontSize=16;fontStyle=1;fontColor=#000000;" parent="1" vertex="1">
                    <mxGeometry x="240" y="180" width="200" height="30" as="geometry"/>
                </mxCell>
                <mxCell id="22" style="edgeStyle=none;html=1;exitX=0.5;exitY=0;exitDx=0;exitDy=0;entryX=1;entryY=1;entryDx=0;entryDy=0;fontColor=#000000;" parent="1" source="21" target="16" edge="1">
                    <mxGeometry relative="1" as="geometry"/>
                </mxCell>
                <mxCell id="21" value="Final&lt;br&gt;fragment" style="text;html=1;strokeColor=none;fillColor=none;align=center;verticalAlign=middle;whiteSpace=wrap;rounded=0;fontSize=16;fontStyle=1;fontColor=#000000;" parent="1" vertex="1">
                    <mxGeometry x="445" y="170" width="110" height="40" as="geometry"/>
                </mxCell>
                <mxCell id="24" value="" style="shape=curlyBracket;whiteSpace=wrap;html=1;rounded=1;flipH=1;fontColor=#000000;rotation=90;" parent="1" vertex="1">
                    <mxGeometry x="330" y="20" width="20" height="280" as="geometry"/>
                </mxCell>
                <mxCell id="25" value="Maximum IPv4 Number of fragments" style="text;html=1;strokeColor=none;fillColor=none;align=center;verticalAlign=middle;whiteSpace=wrap;rounded=0;fontSize=20;fontStyle=1;fontColor=#000000;" parent="1" vertex="1">
                    <mxGeometry x="100" y="10" width="350" height="40" as="geometry"/>
                </mxCell>
            </root>
        </mxGraphModel>
    </diagram>
</mxfile>